Coordinates
version=1
nRows=14
nColumns=36
inDegrees=yes

Units are S.I. units (second, meters, Newtons, ...)
If the header above contains a line with 'inDegrees', this indicates whether rotational values are in degrees (yes) or radians (no).

endheader
time	pelvis_tilt	pelvis_list	pelvis_rotation	pelvis_tx	pelvis_ty	pelvis_tz	hip_flexion_r	hip_adduction_r	hip_rotation_r	knee_angle_r	knee_angle_r_beta	ankle_angle_r	subtalar_angle_r	mtp_angle_r	hip_flexion_l	hip_adduction_l	hip_rotation_l	knee_angle_l	knee_angle_l_beta	ankle_angle_l	subtalar_angle_l	mtp_angle_l	lumbar_extension	lumbar_bending	lumbar_rotation	arm_flex_r	arm_add_r	arm_rot_r	elbow_flex_r	pro_sup_r	arm_flex_l	arm_add_l	arm_rot_l	elbow_flex_l	pro_sup_l
      1.23333330	     -2.32464683	      1.54507812	    -10.66278051	     -0.06039869	      1.30064079	     -0.09546930	     -2.23826427	     -0.30632927	      4.43861404	      1.84985294	      0.03228602	     10.02955719	     -1.48215317	     -7.49999987	     -0.51650876	      1.72462352	      5.79464168	      5.01289248	      0.08749148	      5.71801061	     -2.65682305	     -7.49999987	     -2.16735622	     -2.21775256	     -4.60390857	      2.17173053	    -13.43158754	     15.81184641	     19.24397931	    104.45660878	      1.27808037	    -13.34666351	     18.09111145	     14.48922035	    102.00822259
      1.25000000	     -2.26300354	      1.57714068	    -10.58139730	     -0.06039634	      1.29437498	     -0.09527473	     -2.37990021	     -0.34660433	      4.38413344	      1.68051071	      0.02933045	     10.03921086	     -1.39493537	     -7.49999987	     -0.57466571	      1.78759097	      5.95362476	      4.97014036	      0.08674531	      5.76886278	     -2.63940917	     -7.49999987	     -2.23438408	     -2.22824266	     -4.53336096	      2.05494014	    -13.45596203	     15.69565480	     19.29521093	    103.95042160	      1.29187755	    -13.28735069	     18.01333731	     14.52709289	    101.32315734
      1.26666670	     -2.18446255	      1.62467732	    -10.50977687	     -0.06068773	      1.29386078	     -0.09545482	     -2.48692330	     -0.39397503	      4.24922939	      1.70702453	      0.02979320	     10.10998218	     -1.41248606	     -7.49999987	     -0.56958705	      1.86155261	      6.04348868	      4.99361483	      0.08715502	      5.84525099	     -2.66656025	     -7.49999987	     -2.42175831	     -2.24559951	     -4.46066921	      1.99699821	    -13.58577742	     16.52372715	     19.50160028	    103.92553352	      1.27472577	    -13.41490573	     18.67508872	     14.92588731	    101.25010942
      1.28333330	     -2.16623710	      1.62365098	    -10.48445165	     -0.06092343	      1.29423096	     -0.09528737	     -2.51226081	     -0.38646216	      4.18354049	      1.74147499	      0.03039447	     10.21432758	     -1.42315697	     -7.49999987	     -0.58060664	      1.89526333	      6.07418812	      4.92981372	      0.08604148	      5.91318338	     -2.60390690	     -7.49999987	     -2.44552377	     -2.17356177	     -4.41567500	      2.04318041	    -13.59769981	     16.67739919	     19.31366238	    102.74922834	      1.38613061	    -13.34139959	     18.84268954	     14.75942061	     99.97613457
      1.30000000	     -2.00720783	      1.61068976	    -10.44030102	     -0.06131697	      1.29050797	     -0.09568537	     -2.67820746	     -0.40226991	      4.12272524	      1.76040710	      0.03072490	     10.22798910	     -1.44406435	     -7.49999987	     -0.79255115	      1.94226241	      6.14316130	      4.82793110	      0.08426329	      6.03065528	     -2.54653517	     -7.49999987	     -2.73763322	     -2.12944205	     -4.40441110	      1.90246623	    -13.65765486	     16.34800593	     19.81458061	    103.93135637	      1.30220607	    -13.43783589	     18.56759026	     15.39801519	    101.03910011
      1.31666670	     -1.95998472	      1.66087223	    -10.35569776	     -0.06112363	      1.28805886	     -0.09552702	     -2.68437752	     -0.45779258	      4.25993168	      1.80042448	      0.03142334	     10.17674636	     -1.96246617	     -7.49999987	     -0.73391152	      2.03497144	      6.14571234	      4.96849897	      0.08671667	      6.13450310	     -2.55584726	     -7.49999987	     -2.82696868	     -2.13887615	     -4.34474219	      1.86760956	    -13.67118901	     17.04267701	     19.53510120	     99.76560520	      1.47191538	    -13.30311665	     19.09222075	     15.12005050	     96.93995224
      1.33333330	     -1.96169033	      1.67142770	    -10.25792451	     -0.06124865	      1.29471103	     -0.09577393	     -2.56168432	     -0.48577061	      4.20567363	      2.00432465	      0.03498206	     10.27032644	     -1.97652347	     -7.49999987	     -0.68713143	      2.04804459	      6.06074791	      5.06993761	      0.08848710	      6.14912779	     -2.60089609	     -7.49999987	     -2.93001545	     -2.08657090	     -4.32123179	      1.86044121	    -13.67232660	     17.05752674	     19.60840281	     99.75289165	      1.44570727	    -13.26988509	     19.10706065	     15.22859941	     96.93014746
      1.35000000	     -1.75876974	      1.65330697	    -10.14505660	     -0.06136742	      1.29549910	     -0.09559041	     -2.79350604	     -0.53727584	      4.04557806	      1.96885389	      0.03436298	     10.38280087	     -1.73462222	     -7.49999987	     -1.02838830	      2.09281489	      6.23947111	      5.00901097	      0.08742373	      5.76702527	     -3.00084507	     -7.49999987	     -3.20392988	     -2.05238659	     -4.34825315	      1.98502833	    -13.78025863	     17.76218688	     19.46347468	    101.30202823	      1.53720937	    -13.37526046	     19.73173312	     15.42902084	     98.14169353
      1.36666670	     -1.61666898	      1.66657571	    -10.10658046	     -0.06158025	      1.29518565	     -0.09592650	     -2.96422572	     -0.58601788	      3.87118893	      1.91431904	      0.03341117	     10.47533143	     -1.38817691	     -7.49999987	     -1.25607624	      2.13669117	      6.30302721	      4.99089740	      0.08710759	      5.78550289	     -2.98364927	     -7.49999987	     -3.46268200	     -2.04395469	     -4.29373910	      1.74460472	    -13.80747652	     16.30169695	     20.15441654	    104.59607327	      1.35786640	    -13.39128132	     18.23635568	     16.19461096	    101.36921721
      1.38333330	     -1.55315086	      1.68833627	    -10.09475218	     -0.06173369	      1.29222973	     -0.09564372	     -3.08229699	     -0.60486604	      3.94745677	      1.82127017	      0.03178716	     10.33965642	     -1.59668040	     -7.49999987	     -1.36057423	      2.15555653	      6.22033264	      4.94434737	      0.08629514	      5.94376617	     -2.71259416	     -7.49999987	     -3.56948468	     -2.06191866	     -4.14094320	      1.58464801	    -13.74912090	     15.60889225	     20.28238327	    104.07281382	      1.40765683	    -13.29430709	     17.55044067	     16.25222190	    100.85026860
      1.40000000	     -1.32707830	      1.67295920	     -9.96350466	     -0.06173785	      1.29241033	     -0.09609304	     -3.39843770	     -0.61833331	      3.43388233	      1.77715656	      0.03101723	     10.54112838	     -0.87876162	     -7.49999987	     -1.64109170	      2.19844709	      6.60101275	      4.80847823	      0.08392378	      5.80288063	     -3.08764200	     -7.49999987	     -3.90314452	     -2.06438911	     -4.14102048	      1.55322368	    -13.79370952	     15.83144712	     20.50983958	    102.20471674	      1.37830510	    -13.31421144	     17.76932347	     16.58873176	     98.84844857
      1.41666670	     -1.16076068	      1.68040483	     -9.98808530	     -0.06170235	      1.29333721	     -0.09572663	     -3.66232145	     -0.64708293	      3.56188351	      1.71003256	      0.02984570	     10.55899389	     -0.97794683	     -7.49999987	     -1.94122640	      2.23124380	      6.41749909	      4.62823813	      0.08077799	      5.83319786	     -2.75981436	     -7.49999987	     -4.21390384	     -2.08764172	     -4.03809350	      1.32756826	    -13.93957956	     16.14978999	     21.16824256	     99.47731476	      1.09134475	    -13.49967685	     18.03173709	     17.49253579	     96.17144285
      1.43333330	     -1.52188216	      1.79289513	     -9.85680330	     -0.06165454	      1.29265785	     -0.09616540	     -3.25337886	     -0.69395431	      3.40033677	      1.84198931	      0.03214878	     10.64969410	     -1.02035698	     -7.49999987	     -1.57088717	      2.31635419	      6.81472676	      4.61172854	      0.08048985	      5.60280824	     -3.26778880	     -7.49999987	     -3.47027376	     -2.12339899	     -4.23766163	      1.92523256	    -13.84759164	     18.47838509	     19.40658871	     99.07138613	      1.36820692	    -13.35222707	     19.81245340	     15.98053053	     95.55164635
      1.45000000	     -1.37447688	      1.82924833	     -9.97755999	     -0.06176362	      1.29333956	     -0.09565541	     -3.47926878	     -0.70352290	      3.63238290	      1.81791107	      0.03172853	     10.59320208	     -1.26528185	     -7.49999987	     -1.71819366	      2.37803107	      6.57753976	      4.48776115	      0.07832621	      6.05377167	     -2.57552659	     -7.49999987	     -3.80134408	     -2.20616243	     -3.98885419	      1.42646240	    -13.76655678	     15.14864534	     20.61477750	    105.22515723	      0.91748416	    -13.41911666	     16.46591406	     17.50227577	    101.77612671
